Simulation
nRows=28
nColumns=15
endheader
time  TH_x TH_y TH_z SC_y  SC_z  SC_x  AC_y  AC_z  AC_x  GH_y  GH_z  GH_yy  EL_x  PS_y
1.5  0.000000  0.000000  0.000000  -41.55130746251053  8.782592265600028  14.797468486045355  44.555254325514134  22.317529134570325  5.437611237851658  2.267614914404365  54.35641018825556  2.2454700584994542  19.616193194577818  0.000000
1.53  0.000000  0.000000  0.000000  -41.35195386755034  8.579880100458775  14.35514328470057  44.52768570839229  22.27039698051376  5.19199547038553  2.1497969050432544  53.78035549922922  1.9839553932605425  19.822213921685616  0.000000
1.56  0.000000  0.000000  0.000000  -41.118465161237054  8.335716104233008  13.833975160004352  44.51609693384524  22.20393796554653  4.9132994975981905  1.999097989628431  53.00636526729477  1.602906946922706  20.11668985682098  0.000000
1.5899999999999999  0.000000  0.000000  0.000000  -40.86152366312091  8.058255515946195  13.250421539837003  44.52457436367835  22.108863902020566  4.611292366203649  1.8189125287548982  52.021147942514446  1.1090426957741795  20.510637801438154  0.000000
1.6199999999999999  0.000000  0.000000  0.000000  -40.58804827394078  7.754905790709764  12.61002228471186  44.55210565998191  21.97277504602559  4.292916266700616  1.6177617198464598  50.832375188099114  0.51856361773057  21.01743646776195  0.000000
1.65  0.000000  0.000000  0.000000  -40.30153724974962  7.433561064581421  11.911248729377535  44.5935475723035  21.783093610797884  3.9671171568154198  1.4045637212696453  49.46372794044434  -0.14485203794611812  21.647610215665154  0.000000
1.68  0.000000  0.000000  0.000000  -39.99976409405215  7.100145424689644  11.162442002570744  44.64775234577462  21.520053179760126  3.6349375443410925  1.1829277184692668  47.950720280819134  -0.8512646504140272  22.399778517542575  0.000000
1.71  0.000000  0.000000  0.000000  -39.67903295203434  6.755814635066672  10.372823485035077  44.7198518797097  21.16672658172637  3.296154239752666  0.9483927538827113  46.338358362961685  -1.564623970942748  23.253834762165578  0.000000
1.74  0.000000  0.000000  0.000000  -39.333839543697785  6.39969661556163  9.541584513602281  44.81288232674666  20.717927836782472  2.960496536799113  0.6901215326603787  44.676093805087746  -2.2455418430067997  24.1736097247309  0.000000
1.77  0.000000  0.000000  0.000000  -38.96167451239951  6.031359862437416  8.67427934611512  44.92611001040823  20.172039415873723  2.637086170220951  0.4002575754045515  43.01222885156857  -2.855744788844378  25.111250504436057  0.000000
1.7999999999999998  0.000000  0.000000  0.000000  -38.5620648634999  5.647154504018114  7.782889006771334  45.05248908197828  19.534326439163152  2.328089139592239  0.08514002029980687  41.389502740544295  -3.367359539823969  26.006837721783246  0.000000
1.8299999999999998  0.000000  0.000000  0.000000  -38.13697036058871  5.243139733002881  6.877978690091741  45.17803991010788  18.823465111160242  2.0361995668035706  -0.23477002496877306  39.83973007559672  -3.7652130801446972  26.788745825518586  0.000000
1.8599999999999999  0.000000  0.000000  0.000000  -37.69106370011745  4.825206801478095  5.976570988098515  45.287302145885704  18.056371779452927  1.7651935261833187  -0.5300479639271745  38.381564279997036  -4.049272528424668  27.38679593309247  0.000000
1.89  0.000000  0.000000  0.000000  -37.22905501167268  4.399929346181769  5.103575855491465  45.37028317409936  17.24708716832553  1.5098589576583359  -0.7822559548234265  37.02573932716568  -4.227350428303799  27.758678530341143  0.000000
1.92  0.000000  0.000000  0.000000  -36.756837087631666  3.9715325485497996  4.278638088716784  45.42334490973042  16.412087689023124  1.2650340770212074  -0.9947847307287133  35.77466756191172  -4.312202990147363  27.904936982402187  0.000000
1.95  0.000000  0.000000  0.000000  -36.286483805043815  3.545296978192708  3.515018591627652  45.45012330216647  15.567168306917063  1.0304745561563629  -1.1862329315507558  34.62239052772591  -4.320082700666846  27.85678242374092  0.000000
1.98  0.000000  0.000000  0.000000  -35.8317477736879  3.1241128101352675  2.8218408561686403  45.458848656907136  14.728091215012226  0.8066753088042709  -1.377628251761059  33.55696426460227  -4.2706367991016085  27.653119814377053  0.000000
2.01  0.000000  0.000000  0.000000  -35.40558333433372  2.7106620815398825  2.20644299875394  45.45888745972598  13.90861128072783  0.5926828730196675  -1.5852941259938016  32.56117603936969  -4.183669034307688  27.327096810489586  0.000000
2.04  0.000000  0.000000  0.000000  -35.01699691245672  2.306970288050558  1.674555862650676  45.45727567007442  13.120630281914812  0.3848898061199095  -1.8180426459569827  31.61354473321219  -4.077788726032116  26.90546292587178  0.000000
2.07  0.000000  0.000000  0.000000  -34.673002572010084  1.914965167685743  1.2313169406829365  45.458661829157165  12.372600743324291  0.17712184803853023  -2.0787069634814395  30.690782026662767  -3.966565001069806  26.411519386304754  0.000000
2.1  0.000000  0.000000  0.000000  -34.37644648494217  1.5365968982838694  0.8781184329085817  45.464313507683556  11.670014055420351  -0.0370959244611776  -2.3657558570965835  29.77112426610053  -3.854836193112641  25.866882968468968  0.000000
2.13  0.000000  0.000000  0.000000  -34.126682081140636  1.173501033895072  0.6063382441725632  45.472726948209186  11.019945044109816  -0.2582446613642997  -2.6748845689317657  28.83669486670125  -3.734154876447173  25.292306632296057  0.000000
2.16  0.000000  0.000000  0.000000  -33.91987399601082  0.8284837629146751  0.403425419148399  45.483106462981254  10.428304269103121  -0.48305206054224736  -2.990842657092774  27.87067297396389  -3.593958192661369  24.706987188514955  0.000000
2.19  0.000000  0.000000  0.000000  -33.75118185993416  0.5059258950217362  0.26703258814211484  45.49714963925686  9.894410039693883  -0.7119928572736227  -3.2897926248055924  26.853388437362767  -3.421018768892699  24.127894187657354  0.000000
2.2199999999999998  0.000000  0.000000  0.000000  -33.618323571420916  0.2092773925356373  0.20510512134571612  45.52034659035317  9.415673901610548  -0.9506314170678303  -3.542151104139439  25.76202169047244  -3.1998039434259504  23.565511963191437  0.000000
2.25  0.000000  0.000000  0.000000  -33.52213094973023  -0.058962568587555726  0.2211069379999644  45.554752963808795  8.99742837215454  -1.1983684102837178  -3.7298681934905664  24.573168922030668  -2.9006067936981244  23.023771319820188  0.000000
2.28  0.000000  0.000000  0.000000  -33.45577568159969  -0.2935565666621677  0.31033486933679677  45.59858063749478  8.648510578418547  -1.454476441017556  -3.864734715282109  23.266378356186557  -2.473394006650554  22.50514400522627  0.000000
2.31  0.000000  0.000000  0.000000  -33.41025965621534  -0.48827935547450946  0.47179967847043486  45.6468053911528  8.36480532483322  -1.7217809740378869  -3.994936754728577  21.83347802070075  -1.8515082304185453  22.01999705247082  0.000000
